<svg width="78" height="78" viewBox="0 0 78 78" fill="none" xmlns="http://www.w3.org/2000/svg">
<path d="M38.782 0C17.403 0 0 17.404 0 38.781C0 60.16 17.403 77.563 38.782 77.563C60.16 77.563 77.564 60.16 77.564 38.781C77.564 17.405 60.16 0 38.782 0ZM38.782 6.447C53.535 6.447 66.029 16.524 69.91 29.927C69.914 29.969 69.914 29.995 69.922 30.038C70.645 35.344 67.776 35.556 67.443 35.559H55.727H54.991C54.288 35.345 53.101 34.503 51.461 31.655C51.133 31.086 50.862 30.708 50.63 30.463C47.988 26.699 43.674 24.173 38.783 24.173C33.837 24.173 29.424 26.752 26.798 30.584C26.587 30.832 26.351 31.161 26.066 31.655C24.425 34.504 23.239 35.345 22.539 35.559H21.801H10.121C9.788 35.556 6.919 35.344 7.642 30.038C7.648 29.995 7.648 29.969 7.653 29.927C11.532 16.524 24.029 6.447 38.782 6.447ZM46.945 38.782C46.945 43.295 43.294 46.947 38.782 46.947C34.269 46.947 30.618 43.295 30.618 38.782C30.618 34.271 34.269 30.619 38.782 30.619C43.294 30.619 46.945 34.271 46.945 38.782ZM38.782 71.119C24.029 71.119 11.535 61.042 7.651 47.639C7.646 47.597 7.646 47.57 7.64 47.526C6.921 42.264 9.733 42.013 10.105 42.006H22.709C23.391 42.288 24.443 43.147 25.844 45.482C28.292 50.132 33.111 53.393 38.673 53.393C44.048 53.393 48.863 50.355 51.39 45.956C51.415 45.914 51.434 45.891 51.459 45.848C52.972 43.222 54.099 42.303 54.814 42.006H67.456C67.827 42.013 70.639 42.264 69.921 47.526C69.913 47.57 69.913 47.597 69.909 47.639C66.029 61.041 53.535 71.119 38.782 71.119Z" fill="#E2DFDF" fill-opacity="0.74"/>
</svg>
